<?xml version="1.0" encoding="UTF-8"?>
<svg version="1.1" xmlns="http://www.w3.org/2000/svg" width="500" height="500">
<path d="M0 0 C0.95777344 0.02707031 1.91554688 0.05414063 2.90234375 0.08203125 C3.61519531 0.11683594 4.32804687 0.15164062 5.0625 0.1875 C5.0625 1.8375 5.0625 3.4875 5.0625 5.1875 C3.86625 5.043125 2.67 4.89875 1.4375 4.75 C-11.08703901 4.84815469 -21.01257476 14.20619204 -29.31103516 22.55517578 C-30.96269347 24.21278423 -32.6399136 25.84046797 -34.32421875 27.46484375 C-41.05016828 34.00026198 -47.1277924 40.81583823 -52.9375 48.1875 C-56.77231736 52.95596952 -60.63648785 57.70064215 -64.51025391 62.4375 C-65.69492613 63.89007108 -66.87017791 65.35031921 -68.04296875 66.8125 C-72.45523199 72.14356405 -77.31741385 75.98080462 -83.9375 78.1875 C-85.70634605 74.04607003 -83.98239117 70.58408569 -82.5 66.625 C-82.09599976 65.50931641 -82.09599976 65.50931641 -81.68383789 64.37109375 C-79.6037512 58.72539619 -77.26304662 53.20822858 -74.875 47.6875 C-72.23619256 41.54369248 -69.84046074 35.39395823 -67.875 29 C-67.65900146 28.3296875 -67.44300293 27.659375 -67.22045898 26.96875 C-65.75271786 21.93289045 -65.88560024 18.23875467 -66.9375 13.1875 C-69.5074514 10.0088759 -71.05934327 8.48021891 -74.9375 7.1875 C-83.96087936 6.3405402 -91.21779544 7.95620954 -98.5625 13.3125 C-106.98838292 20.34142153 -112.61896243 28.65098871 -114.31640625 39.640625 C-114.61137297 45.23547764 -113.30617554 48.72628105 -109.9375 53.1875 C-106.21393769 55.74079987 -102.41269751 55.41421361 -98.08984375 54.78125 C-94.52856569 53.79882847 -93.03350669 52.17272165 -90.9375 49.1875 C-89.99504572 46.50894574 -89.46111701 43.99599124 -88.9375 41.1875 C-87.9475 41.5175 -86.9575 41.8475 -85.9375 42.1875 C-86.30113636 49.33901515 -86.30113636 49.33901515 -89 52.9375 C-94.21884751 56.93491511 -98.28945313 59.61527138 -105.0625 59.1875 C-109.51098904 58.50416835 -112.50538242 57.20106666 -115.9375 54.1875 C-119.97597704 48.61718685 -120.66527814 42.91176003 -119.9375 36.1875 C-117.23279187 25.30684559 -111.16666054 16.56889049 -101.9375 10.1875 C-90.99350451 4.36817784 -79.72542806 0.53900182 -67.28125 3.90625 C-63.14011212 5.82229887 -60.61188553 7.95228953 -58.9375 12.1875 C-56.33091902 25.75833515 -62.73741185 38.31441976 -68.125 50.4375 C-69.10708433 52.67517879 -70.08547402 54.91439669 -71.06037903 57.1552124 C-71.66200456 58.53516271 -72.26833409 59.91307417 -72.87992859 61.28863525 C-74.42693173 64.61162516 -74.42693173 64.61162516 -74.9375 68.1875 C-70.79527663 63.50805994 -66.72135898 58.77305526 -62.6875 54 C-62.22061768 53.44763672 -61.75373535 52.89527344 -61.27270508 52.32617188 C-58.87855672 49.49143512 -56.48830867 46.65347122 -54.1015625 43.8125 C-49.19363063 37.97844636 -44.24494724 32.20091072 -39.09375 26.578125 C-37.66426353 24.99325956 -36.26743834 23.37827169 -34.90625 21.734375 C-30.50399703 16.51080618 -25.78667411 12.29212586 -20.3125 8.25 C-19.69101074 7.78924072 -19.06952148 7.32848145 -18.42919922 6.85375977 C-12.63269831 2.70715031 -7.35415721 -0.27237619 0 0 Z " fill="#5E6DEC" transform="translate(235.9375,199.8125)"/>
<path d="M0 0 C14.52 0 29.04 0 44 0 C44.495 1.98 44.495 1.98 45 4 C43 6 43 6 40.1796875 6.1953125 C39.08914063 6.17210937 37.99859375 6.14890625 36.875 6.125 C35.77929688 6.10695312 34.68359375 6.08890625 33.5546875 6.0703125 C32.29011719 6.03550781 32.29011719 6.03550781 31 6 C31.16076523 6.71862717 31.32153046 7.43725433 31.48716736 8.17765808 C31.9810248 10.89557122 32.15643919 13.39906838 32.20532227 16.1574707 C32.2352401 17.65846062 32.2352401 17.65846062 32.26576233 19.18977356 C32.28247482 20.2576561 32.29918732 21.32553864 32.31640625 22.42578125 C32.33718735 23.52850876 32.35796844 24.63123627 32.37937927 25.76737976 C32.44464932 29.28235778 32.50365495 32.79740912 32.5625 36.3125 C32.60570665 38.69857523 32.64932163 41.08464309 32.69335938 43.47070312 C32.8003076 49.31372506 32.90211555 55.15681958 33 61 C31.68 61 30.36 61 29 61 C29 63.64 29 66.28 29 69 C27.68 69 26.36 69 25 69 C25.495 77.415 25.495 77.415 26 86 C25.01 86 24.02 86 23 86 C23 80.39 23 74.78 23 69 C21.68 69 20.36 69 19 69 C19 66.36 19 63.72 19 61 C17.68 61 16.36 61 15 61 C15.01160156 60.00742187 15.02320313 59.01484375 15.03515625 57.9921875 C15.08685644 51.48523393 15.0736525 45.05042897 14.5 38.5625 C13.60329119 27.73884573 13.92334266 16.85127246 14 6 C9.71 6 5.42 6 1 6 C0.34 4.68 -0.32 3.36 -1 2 C-0.67 1.34 -0.34 0.68 0 0 Z " fill="#5D6EFA" transform="translate(244,213)"/>
<path d="M0 0 C2.45243461 1.90063682 3.62927427 3.25854855 5 6 C5.07194869 8.88370333 5.09291708 11.74239664 5.0625 14.625 C5.05798828 15.42679688 5.05347656 16.22859375 5.04882812 17.0546875 C5.03703168 19.03649006 5.01909605 21.01825433 5 23 C5.99 23 6.98 23 8 23 C8.33 24.32 8.66 25.64 9 27 C12.19683586 22.77034025 14.54662829 19.08161038 16 14 C15.06751359 8.7803817 11.94067694 4.3108385 9 0 C11.97 0 14.94 0 18 0 C19.32 2.31 20.64 4.62 22 7 C24.77000825 3.67913229 24.77000825 3.67913229 27 0 C29.97 0 32.94 0 36 0 C35.33291016 1.19496094 35.33291016 1.19496094 34.65234375 2.4140625 C34.08644531 3.47367188 33.52054688 4.53328125 32.9375 5.625 C32.36902344 6.66914063 31.80054688 7.71328125 31.21484375 8.7890625 C29.80974566 12.50285874 29.90057179 14.22326049 31 18 C32.14450099 20.48947247 32.14450099 20.48947247 33.5625 22.75 C36 26.8101983 36 26.8101983 36 29 C33.03 29 30.06 29 27 29 C25.68 26.36 24.36 23.72 23 21 C20.76298108 23.80992685 20.76298108 23.80992685 19.39453125 27.08984375 C18 29 18 29 14.41015625 29.64453125 C12.96183892 29.72033849 11.5123284 29.77552109 10.0625 29.8125 C9.33353516 29.85052734 8.60457031 29.88855469 7.85351562 29.92773438 C4.59943179 30.06791947 2.11309796 30.03769932 -1 29 C-1.33 28.34 -1.66 27.68 -2 27 C-2.495 27.495 -2.99 27.99 -3.5 28.5 C-7.01651426 30.60990855 -9.99309697 30.46994542 -14 30 C-16.6891965 29.15078005 -17.62269404 28.52822835 -19.25 26.25 C-20.62055279 22.13834162 -20.5995936 19.22773927 -18.6875 15.3125 C-14.66733588 11.85328901 -10.11033517 11.08374349 -5 10 C-5 9.01 -5 8.02 -5 7 C-9.05606165 7.46800711 -12.46588679 7.87953208 -16 10 C-16.99 8.68 -17.98 7.36 -19 6 C-18.5 4.1875 -18.5 4.1875 -17 2 C-11.22864422 -0.93630382 -6.30575783 -1.86193637 0 0 Z M-11 18 C-11.33 18.99 -11.66 19.98 -12 21 C-11.01 21.99 -10.02 22.98 -9 24 C-6.46255685 23.45291273 -6.46255685 23.45291273 -4 22 C-3.10169161 18.94727535 -3.10169161 18.94727535 -3 16 C-6.25811062 16 -8.10441559 16.5522078 -11 18 Z " fill="#5D6DF1" transform="translate(212,240)"/>
<path d="M0 0 C2.64 0 5.28 0 8 0 C8.33 6.6 8.66 13.2 9 20 C10.98 17.36 12.96 14.72 15 12 C18.47555267 11.64353306 20.70885908 11.47341745 24 12 C22.65871528 16.42623956 20.32210582 19.03168193 17.14453125 22.25390625 C15.81651361 23.91219386 15.81651361 23.91219386 16.0703125 25.86328125 C17.34322179 28.78883327 19.12735899 31.09259325 21.0625 33.625 C25 38.78734622 25 38.78734622 25 41 C21.83546179 41.58124171 19.14371736 41.76105816 16 41 C13.12875253 38.33161241 11.05238306 35.32604843 9 32 C8.67 34.97 8.34 37.94 8 41 C5.36 41 2.72 41 0 41 C0 27.47 0 13.94 0 0 Z " fill="#5E6FF5" transform="translate(368,228)"/>
<path d="M0 0 C3.29932174 2.3336666 4.31455281 4.11364374 5 8 C5.06898242 10.59373914 5.09434752 13.15810197 5.0625 15.75 C5.05798828 16.44738281 5.05347656 17.14476562 5.04882812 17.86328125 C5.0371002 19.57555803 5.01916653 21.28779033 5 23 C5.99 23 6.98 23 8 23 C8 24.98 8 26.96 8 29 C4.2983569 29.94693195 2.60887535 30.30443767 -0.875 28.5625 C-1.57625 28.046875 -2.2775 27.53125 -3 27 C-3.495 27.495 -3.99 27.99 -4.5 28.5 C-7.96586564 30.57951938 -11.11441476 30.80019973 -15 30 C-17.99380345 28.00413103 -19.63808488 26.61740829 -20.44140625 23.02734375 C-20.63537163 19.67987666 -20.41010473 17.52290743 -18.32421875 14.86328125 C-15.64848377 12.71819623 -13.5708498 12.04067852 -10.25 11.25 C-9.26515625 11.00765625 -8.2803125 10.7653125 -7.265625 10.515625 C-6.51796875 10.34546875 -5.7703125 10.1753125 -5 10 C-5 9.01 -5 8.02 -5 7 C-9.3177458 7.50797009 -13.03302114 8.19682779 -17 10 C-19 7 -19 7 -18.875 5 C-17.72752897 2.37720908 -16.43928712 1.46357227 -14 0 C-9.33269795 -1.51912187 -4.7417301 -1.02566541 0 0 Z M-11 18 C-11.88693303 20.04105639 -11.88693303 20.04105639 -12 22 C-9.67145537 23.19838209 -9.67145537 23.19838209 -7 24 C-3.68539295 22.29107501 -3.68539295 22.29107501 -3.3125 18.875 C-3.1578125 17.451875 -3.1578125 17.451875 -3 16 C-6.28176588 16 -8.10888212 16.47835901 -11 18 Z " fill="#5E6DEC" transform="translate(326,240)"/>
<path d="M0 0 C2.19342673 1.49329275 3.35866896 2.86626965 5 5 C4.3125 6.9375 4.3125 6.9375 3 9 C0.375 9.75 0.375 9.75 -2 10 C-2.33 9.34 -2.66 8.68 -3 8 C-5.32024404 6.98546047 -5.32024404 6.98546047 -8 7 C-10.47722993 8.39279682 -10.47722993 8.39279682 -12 11 C-12.33094958 14.77282526 -12.19754817 17.40735548 -11 21 C-8.19954954 21.85650653 -8.19954954 21.85650653 -5 22 C-2.60204619 20.18712805 -2.60204619 20.18712805 -1 18 C1.02045442 18.60183749 3.02111039 19.27306096 5 20 C5.33 20.66 5.66 21.32 6 22 C2.09329446 28.4181591 2.09329446 28.4181591 -2 30 C-7.58345308 30.78168343 -12.29560432 30.28213652 -17 27 C-20.86467409 23.13532591 -21.31984378 19.77257211 -21.5 14.5 C-21.31390262 9.2292419 -20.92077417 5.8202415 -17 2 C-11.46662968 -1.4306896 -6.28489644 -1.79416807 0 0 Z " fill="#5E6DED" transform="translate(358,240)"/>
<path d="M0 0 C0.95777344 0.02707031 1.91554688 0.05414063 2.90234375 0.08203125 C3.61519531 0.11683594 4.32804687 0.15164062 5.0625 0.1875 C5.0625 1.8375 5.0625 3.4875 5.0625 5.1875 C3.86625 5.043125 2.67 4.89875 1.4375 4.75 C-11.08703901 4.84815469 -21.01257476 14.20619204 -29.31103516 22.55517578 C-30.96269347 24.21278423 -32.6399136 25.84046797 -34.32421875 27.46484375 C-41.05016828 34.00026198 -47.1277924 40.81583823 -52.9375 48.1875 C-56.77231736 52.95596952 -60.63648785 57.70064215 -64.51025391 62.4375 C-65.69492613 63.89007108 -66.87017791 65.35031921 -68.04296875 66.8125 C-72.45523199 72.14356405 -77.31741385 75.98080462 -83.9375 78.1875 C-85.53830151 74.18549622 -84.23029692 71.14193764 -82.9375 67.1875 C-82.11111624 70.07984315 -81.9375 72.07492431 -81.9375 75.1875 C-81.2775 75.1875 -80.6175 75.1875 -79.9375 75.1875 C-79.9375 74.5275 -79.9375 73.8675 -79.9375 73.1875 C-77.4625 72.1975 -77.4625 72.1975 -74.9375 71.1875 C-74.9375 70.1975 -74.9375 69.2075 -74.9375 68.1875 C-73.79296875 66.6015625 -73.79296875 66.6015625 -72.125 64.8125 C-68.90459617 61.26811188 -65.77119398 57.66348731 -62.6875 54 C-61.73700021 52.87498222 -60.78647906 51.74998249 -59.8359375 50.625 C-57.92180784 48.35640188 -56.01086346 46.08516273 -54.1015625 43.8125 C-49.19363063 37.97844636 -44.24494724 32.20091072 -39.09375 26.578125 C-37.66426353 24.99325956 -36.26743834 23.37827169 -34.90625 21.734375 C-30.50399703 16.51080618 -25.78667411 12.29212586 -20.3125 8.25 C-19.69101074 7.78924072 -19.06952148 7.32848145 -18.42919922 6.85375977 C-12.63269831 2.70715031 -7.35415721 -0.27237619 0 0 Z " fill="#5D6DDE" transform="translate(235.9375,199.8125)"/>
<path d="M0 0 C6.33333333 0 12.66666667 0 19 0 C18.74438677 2.3431213 18.40729228 4.67843403 18 7 C15.39902318 8.30048841 12.86044938 8.56471422 10 9 C9.13580777 11.59257669 8.82419068 13.34037707 8.68359375 16.01171875 C8.64169922 16.76904297 8.59980469 17.52636719 8.55664062 18.30664062 C8.51732422 19.09232422 8.47800781 19.87800781 8.4375 20.6875 C8.39431641 21.48478516 8.35113281 22.28207031 8.30664062 23.10351562 C8.20072632 25.06881447 8.09987449 27.03438496 8 29 C5.36 29 2.72 29 0 29 C0 19.43 0 9.86 0 0 Z " fill="#5F6EFC" transform="translate(286,240)"/>
<path d="M0 0 C2.97 0 5.94 0 9 0 C7.65871528 4.42623956 5.32210582 7.03168193 2.14453125 10.25390625 C0.81651361 11.91219386 0.81651361 11.91219386 1.0703125 13.86328125 C2.34322179 16.78883327 4.12735899 19.09259325 6.0625 21.625 C10 26.78734622 10 26.78734622 10 29 C6.83546179 29.58124171 4.14371736 29.76105816 1 29 C-1.87124747 26.33161241 -3.94761694 23.32604843 -6 20 C-6.33 22.97 -6.66 25.94 -7 29 C-7.33 29 -7.66 29 -8 29 C-8.33 24.71 -8.66 20.42 -9 16 C-7.35 15.67 -5.7 15.34 -4 15 C-4 15.99 -4 16.98 -4 18 C-2.68 18.66 -1.36 19.32 0 20 C-0.4125 18.948125 -0.825 17.89625 -1.25 16.8125 C-1.62125 14.9253125 -1.62125 14.9253125 -2 13 C-0.1875 10.375 -0.1875 10.375 2 8 C2.78946609 5.31492671 2.78946609 5.31492671 3 3 C2.3503125 3.7425 2.3503125 3.7425 1.6875 4.5 C0 6 0 6 -3 6 C-2 4 -1 2 0 0 Z " fill="#5D6CE7" transform="translate(383,240)"/>
<path d="M0 0 C6.6 0 13.2 0 20 0 C20 0.99 20 1.98 20 3 C18.68 3 17.36 3 16 3 C16 5.97 16 8.94 16 12 C12.04 12 8.08 12 4 12 C4 9.03 4 6.06 4 3 C2.35 3 0.7 3 -1 3 C-0.67 2.01 -0.34 1.02 0 0 Z " fill="#5C6DF8" transform="translate(256,199)"/>
<path d="M0 0 C2.45243461 1.90063682 3.62927427 3.25854855 5 6 C5.07116382 8.37402501 5.08409085 10.75000677 5.0625 13.125 C5.05347656 14.40632812 5.04445312 15.68765625 5.03515625 17.0078125 C5.02355469 17.99523437 5.01195312 18.98265625 5 20 C3.35 20.66 1.7 21.32 0 22 C0 21.34 0 20.68 0 20 C-0.99 20 -1.98 20 -3 20 C-3 18.68 -3 17.36 -3 16 C-5.64 16.66 -8.28 17.32 -11 18 C-11.66 17.01 -12.32 16.02 -13 15 C-14.32 15.33 -15.64 15.66 -17 16 C-17.66 18.31 -18.32 20.62 -19 23 C-18.34 23.33 -17.68 23.66 -17 24 C-17.66 24.66 -18.32 25.32 -19 26 C-20.42662219 23.14675563 -20.31033868 21.16545451 -20 18 C-18.3667771 14.65578167 -16.87423567 13.32718401 -13.390625 12.0234375 C-9.5332234 10.93152752 -6.02127977 10 -2 10 C-3.65 11.32 -5.3 12.64 -7 14 C-2.545 13.505 -2.545 13.505 2 13 C2.0928125 11.1128125 2.0928125 11.1128125 2.1875 9.1875 C2.22230469 8.47980469 2.25710937 7.77210938 2.29296875 7.04296875 C2.1397834 4.94890765 2.1397834 4.94890765 0.875 3.28125 C-1.78052472 1.46664144 -4.00117473 1.48380781 -7.1875 1.3125 C-8.27417969 1.24675781 -9.36085937 1.18101562 -10.48046875 1.11328125 C-11.31191406 1.07589844 -12.14335937 1.03851563 -13 1 C-8.57043273 -1.59733717 -4.87634524 -1.26390566 0 0 Z M0 18 C1 20 1 20 1 20 Z " fill="#5F6DE0" transform="translate(212,240)"/>
<path d="M0 0 C0.33 0 0.66 0 1 0 C1.33 16.5 1.66 33 2 50 C0.68 50 -0.64 50 -2 50 C-2 52.64 -2 55.28 -2 58 C-3.32 58 -4.64 58 -6 58 C-5.67 63.61 -5.34 69.22 -5 75 C-5.99 75 -6.98 75 -8 75 C-8 69.39 -8 63.78 -8 58 C-9.32 58 -10.64 58 -12 58 C-12 55.36 -12 52.72 -12 50 C-13.32 50 -14.64 50 -16 50 C-16 47.36 -16 44.72 -16 42 C-15.67 42 -15.34 42 -15 42 C-15 44.31 -15 46.62 -15 49 C-12.525 48.505 -12.525 48.505 -10 48 C-10 50.64 -10 53.28 -10 56 C-7.69 56.33 -5.38 56.66 -3 57 C-3 54.36 -3 51.72 -3 49 C-2.01 49 -1.02 49 0 49 C0 32.83 0 16.66 0 0 Z " fill="#606FDA" transform="translate(275,224)"/>
<path d="M0 0 C2.64 0 5.28 0 8 0 C7.67 0.66 7.34 1.32 7 2 C4.03 1.505 4.03 1.505 1 1 C1 9.91 1 18.82 1 28 C2.98 28 4.96 28 7 28 C6.99476318 27.44014404 6.98952637 26.88028809 6.98413086 26.3034668 C6.96333309 23.76482263 6.95033096 21.22619641 6.9375 18.6875 C6.92912109 17.80642578 6.92074219 16.92535156 6.91210938 16.01757812 C6.90888672 15.17001953 6.90566406 14.32246094 6.90234375 13.44921875 C6.89710693 12.66893311 6.89187012 11.88864746 6.88647461 11.0847168 C7 9 7 9 8 6 C8.144375 5.13375 8.28875 4.2675 8.4375 3.375 C8.623125 2.59125 8.80875 1.8075 9 1 C12.21451269 -0.60725635 15.43612536 -0.05748185 19 0 C18.74438677 2.3431213 18.40729228 4.67843403 18 7 C15.39902318 8.30048841 12.86044938 8.56471422 10 9 C9.13580777 11.59257669 8.82419068 13.34037707 8.68359375 16.01171875 C8.64169922 16.76904297 8.59980469 17.52636719 8.55664062 18.30664062 C8.51732422 19.09232422 8.47800781 19.87800781 8.4375 20.6875 C8.39431641 21.48478516 8.35113281 22.28207031 8.30664062 23.10351562 C8.20072632 25.06881447 8.09987449 27.03438496 8 29 C5.36 29 2.72 29 0 29 C0 19.43 0 9.86 0 0 Z " fill="#6170E4" transform="translate(286,240)"/>
<path d="M0 0 C0.67224609 -0.01224609 1.34449219 -0.02449219 2.03710938 -0.03710938 C5.73628237 -0.04812975 7.27721933 0.08064622 10.4375 2.1875 C9.1175 2.1875 7.7975 2.1875 6.4375 2.1875 C7.0975 3.5075 7.7575 4.8275 8.4375 6.1875 C7.65375 5.8575 6.87 5.5275 6.0625 5.1875 C-3.1507664 2.64590927 -11.36508311 4.32361723 -19.625 8.875 C-20.264375 9.308125 -20.90375 9.74125 -21.5625 10.1875 C-21.5625 9.5275 -21.5625 8.8675 -21.5625 8.1875 C-22.8825 8.5175 -24.2025 8.8475 -25.5625 9.1875 C-23.10618248 6.35901315 -20.5300774 5.06868078 -17.125 3.5625 C-16.17753906 3.13710937 -15.23007813 2.71171875 -14.25390625 2.2734375 C-9.35788304 0.29797385 -5.31570308 0.02598095 0 0 Z " fill="#6170D4" transform="translate(158.5625,202.8125)"/>
<path d="M0 0 C0.99 0.33 1.98 0.66 3 1 C2.63636364 8.15151515 2.63636364 8.15151515 -0.0625 11.75 C-6.45429043 16.64583948 -10.75080782 18.58890675 -18.8984375 17.5546875 C-21 17 -21 17 -23 15 C-22.01 15 -21.02 15 -20 15 C-19.67 14.34 -19.34 13.68 -19 13 C-18.43152344 13.11859375 -17.86304688 13.2371875 -17.27734375 13.359375 C-13.03011697 14.06842789 -9.93352994 14.41134957 -6.0625 12.3125 C-1.97156291 9.22342506 -1.32256843 7.67735585 -0.375 2.75 C-0.25125 1.8425 -0.1275 0.935 0 0 Z " fill="#5F6BCE" transform="translate(147,241)"/>
<path d="M0 0 C4.62 0 9.24 0 14 0 C14.33 1.32 14.66 2.64 15 4 C13 6 13 6 10.1796875 6.1953125 C9.08914063 6.17210937 7.99859375 6.14890625 6.875 6.125 C5.77929688 6.10695312 4.68359375 6.08890625 3.5546875 6.0703125 C2.71164062 6.04710937 1.86859375 6.02390625 1 6 C1 6.99 1 7.98 1 9 C0.01 9 -0.98 9 -2 9 C-2 8.34 -2 7.68 -2 7 C-1.34 7 -0.68 7 0 7 C0 4.69 0 2.38 0 0 Z " fill="#5D6DE3" transform="translate(274,213)"/>
<path d="M0 0 C0.66 0.33 1.32 0.66 2 1 C2 2.65 2 4.3 2 6 C1.67 6 1.34 6 1 6 C0.67 8.31 0.34 10.62 0 13 C0.99 13.33 1.98 13.66 3 14 C2.34 14.66 1.68 15.32 1 16 C-0.32 16 -1.64 16 -3 16 C-3 16.66 -3 17.32 -3 18 C-3.99 18.33 -4.98 18.66 -6 19 C-5.67373505 12.67721029 -5.38495108 7.44535609 -2 2 C-1.34 2 -0.68 2 0 2 C0 1.34 0 0.68 0 0 Z " fill="#5C6EFA" transform="translate(159,257)"/>
<path d="M0 0 C3.09438268 0.91995161 4.71026629 1.63783286 6.75 4.1875 C10.59142629 12.83070914 8.16385142 21.88687715 5.12890625 30.4609375 C4.47325081 31.99812012 3.74737065 33.50525869 3 35 C2.67 35 2.34 35 2 35 C3 27.57142857 3 27.57142857 4 24 C2.68 24 1.36 24 0 24 C0.33 21.36 0.66 18.72 1 16 C1.33 16 1.66 16 2 16 C2 18.31 2 20.62 2 23 C2.66 23 3.32 23 4 23 C4 22.34 4 21.68 4 21 C4.66 21 5.32 21 6 21 C5.85899143 18.72886197 5.71203245 16.45809275 5.5625 14.1875 C5.48128906 12.92292969 5.40007812 11.65835938 5.31640625 10.35546875 C5.12815453 7.00818107 5.12815453 7.00818107 4 4 C3.01 3.67 2.02 3.34 1 3 C0.67 2.01 0.34 1.02 0 0 Z " fill="#5F6CD8" transform="translate(169,205)"/>
<path d="M0 0 C6.6 0 13.2 0 20 0 C20 0.99 20 1.98 20 3 C18.86111328 2.98259766 18.86111328 2.98259766 17.69921875 2.96484375 C16.70535156 2.95582031 15.71148437 2.94679687 14.6875 2.9375 C13.70136719 2.92589844 12.71523438 2.91429687 11.69921875 2.90234375 C8.90036151 2.87670138 8.90036151 2.87670138 6 4 C5.67 6.64 5.34 9.28 5 12 C4.67 12 4.34 12 4 12 C4 9.03 4 6.06 4 3 C2.35 3 0.7 3 -1 3 C-0.67 2.01 -0.34 1.02 0 0 Z " fill="#606EE8" transform="translate(256,199)"/>
<path d="M0 0 C0.66 0.66 1.32 1.32 2 2 C3.96488831 2.88778692 3.96488831 2.88778692 6.125 3.625 C6.84945312 3.88539063 7.57390625 4.14578125 8.3203125 4.4140625 C8.87460938 4.60742188 9.42890625 4.80078125 10 5 C8 6 8 6 4.625 6.4375 C1.53519368 6.91695271 -0.36874154 7.42124492 -3 9 C-3.99 7.68 -4.98 6.36 -6 5 C-3.74193548 0 -3.74193548 0 0 0 Z " fill="#5E6CE4" transform="translate(199,241)"/>
<path d="M0 0 C5.28 0 10.56 0 16 0 C16 0.33 16 0.66 16 1 C11.38 1.33 6.76 1.66 2 2 C2 2.66 2 3.32 2 4 C2.85464844 3.98839844 3.70929688 3.97679687 4.58984375 3.96484375 C5.69457031 3.95582031 6.79929688 3.94679687 7.9375 3.9375 C9.03964844 3.92589844 10.14179688 3.91429687 11.27734375 3.90234375 C14 4 14 4 15 5 C15.07244053 7.01964199 15.08377188 9.04167124 15.0625 11.0625 C15.05347656 12.16722656 15.04445313 13.27195313 15.03515625 14.41015625 C15.02355469 15.26480469 15.01195312 16.11945313 15 17 C14.67 17 14.34 17 14 17 C14 13.37 14 9.74 14 6 C9.71 6 5.42 6 1 6 C0.34 4.68 -0.32 3.36 -1 2 C-0.67 1.34 -0.34 0.68 0 0 Z " fill="#5D6CD2" transform="translate(244,213)"/>
<path d="M0 0 C-0.33 1.32 -0.66 2.64 -1 4 C-0.34 4.33 0.32 4.66 1 5 C0.125 9.75 0.125 9.75 -1 12 C-0.34 12 0.32 12 1 12 C1 12.99 1 13.98 1 15 C-0.32 14.67 -1.64 14.34 -3 14 C-4.45184478 9.46298506 -5.23509196 5.81938524 -5 1 C-2 0 -2 0 0 0 Z " fill="#4E5FF4" transform="translate(263,237)"/>
<path d="M0 0 C3.09592835 3.5087188 4.74194623 6.49197399 6 11 C3.03 11 0.06 11 -3 11 C-3.66 9.02 -4.32 7.04 -5 5 C-4.34 5 -3.68 5 -3 5 C-3 5.66 -3 6.32 -3 7 C-2.01 6.67 -1.02 6.34 0 6 C0 4.02 0 2.04 0 0 Z " fill="#5A6BE7" transform="translate(242,258)"/>
<path d="M0 0 C0.33 0.66 0.66 1.32 1 2 C3.01669827 3.13350534 3.01669827 3.13350534 5 4 C4.67 4.66 4.34 5.32 4 6 C1.69 6 -0.62 6 -3 6 C-3 6.66 -3 7.32 -3 8 C-4.32 8 -5.64 8 -7 8 C-6.38722388 5.03824877 -5.74627478 3.61941217 -4 1 C-1.875 0.3125 -1.875 0.3125 0 0 Z " fill="#5466F5" transform="translate(316,239)"/>
<path d="M0 0 C0.66 0.66 1.32 1.32 2 2 C1 4.5 1 4.5 -1 7 C-3.79374292 7.46837899 -6.14221036 7.23424505 -9 7 C-9.66 5.68 -10.32 4.36 -11 3 C-7.37 2.01 -3.74 1.02 0 0 Z " fill="#5C6EFC" transform="translate(357,262)"/>
<path d="M0 0 C0.66 0 1.32 0 2 0 C4.1519437 3.22791555 4.20086443 4.28400809 4 8 C4.99 8 5.98 8 7 8 C6.67 7.01 6.34 6.02 6 5 C8.31 5 10.62 5 13 5 C13 5.66 13 6.32 13 7 C11.35 7 9.7 7 8 7 C8.33 7.99 8.66 8.98 9 10 C4.50347222 10.36458333 4.50347222 10.36458333 2.1875 8.6875 C1 7 1 7 1 4 C0.34 4 -0.32 4 -1 4 C-0.67 2.68 -0.34 1.36 0 0 Z " fill="#5D6EFB" transform="translate(308,259)"/>
<path d="M0 0 C0.66 0.66 1.32 1.32 2 2 C0.68 5.3 -0.64 8.6 -2 12 C-2.33 12 -2.66 12 -3 12 C-2.67 9.69 -2.34 7.38 -2 5 C-4.36107189 5.88952278 -4.36107189 5.88952278 -5.0625 9.0625 C-6.10227206 13.00872151 -6.57323966 16.94577677 -7 21 C-7.33 21 -7.66 21 -8 21 C-8.4946164 13.45709983 -6.90617391 7.941085 -4 1 C-2.68 1.66 -1.36 2.32 0 3 C0 2.01 0 1.02 0 0 Z " fill="#616DD6" transform="translate(124,224)"/>
<path d="M0 0 C0.99 0.66 1.98 1.32 3 2 C3 2.99 3 3.98 3 5 C-0.37097383 6.49821059 -2.20442119 7 -6 7 C-6 5.35 -6 3.7 -6 2 C-3.1875 0.875 -3.1875 0.875 0 0 Z " fill="#5B6BFB" transform="translate(345,242)"/>
<path d="M0 0 C0.66 0 1.32 0 2 0 C2.33 5.61 2.66 11.22 3 17 C2.01 17 1.02 17 0 17 C0 11.39 0 5.78 0 0 Z " fill="#5B6BC9" transform="translate(267,282)"/>
<path d="M0 0 C5.94 1.485 5.94 1.485 12 3 C8.60496995 5.26335337 7.82992437 5.18567637 3.9375 4.75 C3.05964844 4.66234375 2.18179688 4.5746875 1.27734375 4.484375 C-1 4 -1 4 -3 2 C-2.01 2 -1.02 2 0 2 C0 1.34 0 0.68 0 0 Z " fill="#606FDA" transform="translate(127,254)"/>
<path d="M0 0 C0.66 0 1.32 0 2 0 C2.2475 0.598125 2.495 1.19625 2.75 1.8125 C4.16444091 4.28777159 5.72860188 5.33430804 8 7 C8 7.66 8 8.32 8 9 C5.25913944 9.22223194 3.56036279 9.34781139 1.1875 7.875 C-0.49106106 5.22464043 -0.20450238 3.06753576 0 0 Z " fill="#5366EF" transform="translate(119,247)"/>
<path d="M0 0 C0.66 0.33 1.32 0.66 2 1 C2 1.99 2 2.98 2 4 C1.34 4 0.68 4 0 4 C0 4.99 0 5.98 0 7 C-1.32 7.33 -2.64 7.66 -4 8 C-4 7.34 -4 6.68 -4 6 C-4.66 5.67 -5.32 5.34 -6 5 C-2.25 1.125 -2.25 1.125 0 0 Z " fill="#5E6FFC" transform="translate(199,254)"/>
<path d="M0 0 C-0.25561323 2.3431213 -0.59270772 4.67843403 -1 7 C-1.99 7.495 -1.99 7.495 -3 8 C-5.125 7.0625 -5.125 7.0625 -7 6 C-5.35 6 -3.7 6 -2 6 C-2 4.35 -2 2.7 -2 1 C-3.65 1 -5.3 1 -7 1 C-7 1.99 -7 2.98 -7 4 C-8.32 3.67 -9.64 3.34 -11 3 C-8.21756596 -1.17365106 -4.53441502 -0.22300402 0 0 Z " fill="#626ED5" transform="translate(305,240)"/>
<path d="M0 0 C0.66 0 1.32 0 2 0 C2 2.64 2 5.28 2 8 C1.01 8 0.02 8 -1 8 C-1 9.65 -1 11.3 -1 13 C-1.66 12.67 -2.32 12.34 -3 12 C-2.14285714 3.42857143 -2.14285714 3.42857143 0 0 Z " fill="#5A6BF9" transform="translate(120,229)"/>
<path d="M0 0 C0.82638376 2.89234315 1 4.88742431 1 8 C1.66 8 2.32 8 3 8 C3 7.34 3 6.68 3 6 C4.98 5.67 6.96 5.34 9 5 C6.27521226 8.36591427 2.93143208 9.44226276 -1 11 C-2.60080151 6.99799622 -1.29279692 3.95443764 0 0 Z " fill="#616CCC" transform="translate(153,267)"/>
<path d="M0 0 C6.6 0 13.2 0 20 0 C20 0.99 20 1.98 20 3 C19.01 2.67 18.02 2.34 17 2 C14.26710707 1.77202438 11.54957796 1.58331813 8.8125 1.4375 C8.06291016 1.39431641 7.31332031 1.35113281 6.54101562 1.30664062 C4.69421625 1.20077315 2.84713166 1.0999024 1 1 C1 1.66 1 2.32 1 3 C0.34 3 -0.32 3 -1 3 C-0.67 2.01 -0.34 1.02 0 0 Z " fill="#656FC3" transform="translate(256,199)"/>
<path d="M0 0 C0.99 0.33 1.98 0.66 3 1 C2.58578031 5.83256305 0.53586014 7.82679218 -3 11 C-2.01 7.37 -1.02 3.74 0 0 Z " fill="#5B68E7" transform="translate(166,234)"/>
<path d="M0 0 C0.33 0.99 0.66 1.98 1 3 C2.093125 2.938125 3.18625 2.87625 4.3125 2.8125 C8 3 8 3 9.9375 4.5 C10.288125 4.995 10.63875 5.49 11 6 C3.57142857 6.28571429 3.57142857 6.28571429 0 4 C0 2.68 0 1.36 0 0 Z " fill="#5A67E8" transform="translate(194,264)"/>
<path d="M0 0 C0.66 0.33 1.32 0.66 2 1 C1.32584613 6.2584002 -0.24265549 11.02638346 -2 16 C-2.33 16 -2.66 16 -3 16 C-2.88487847 14.27014758 -2.75744323 12.54111249 -2.625 10.8125 C-2.55539063 9.84957031 -2.48578125 8.88664062 -2.4140625 7.89453125 C-1.99784147 4.98491062 -1.20125904 2.67109226 0 0 Z " fill="#616CED" transform="translate(156,260)"/>
<path d="M0 0 C1.9375 0.75 1.9375 0.75 4 2 C4.75 4.125 4.75 4.125 5 6 C3.1875 7.5625 3.1875 7.5625 1 9 C0.01 8.67 -0.98 8.34 -2 8 C-1.34 8 -0.68 8 0 8 C-0.33 6.68 -0.66 5.36 -1 4 C-0.01 3.67 0.98 3.34 2 3 C1.34 2.67 0.68 2.34 0 2 C0 1.34 0 0.68 0 0 Z " fill="#626EDA" transform="translate(358,241)"/>
<path d="M0 0 C0.66 0.33 1.32 0.66 2 1 C2.40729228 3.32156597 2.74438677 5.6568787 3 8 C1.68 8 0.36 8 -1 8 C-1.625 5.6875 -1.625 5.6875 -2 3 C-1.34 2.01 -0.68 1.02 0 0 Z " fill="#6070FC" transform="translate(240,257)"/>
<path d="M0 0 C0.99 0.33 1.98 0.66 3 1 C3 1.99 3 2.98 3 4 C-0.375 4.625 -0.375 4.625 -4 5 C-4.66 4.34 -5.32 3.68 -6 3 C-5.195625 2.690625 -4.39125 2.38125 -3.5625 2.0625 C-1.10919595 1.23664655 -1.10919595 1.23664655 0 0 Z " fill="#576AFA" transform="translate(209,250)"/>
<path d="M0 0 C0.99 1.485 0.99 1.485 2 3 C2.99387334 4.33790641 3.9926892 5.67218122 5 7 C4.34 7 3.68 7 3 7 C3.33 8.65 3.66 10.3 4 12 C2.29159719 10.36587557 1.06546953 9.13093906 0 7 C-0.04022391 4.6670134 -0.04320247 2.33293334 0 0 Z " fill="#5F6DE1" transform="translate(337,254)"/>
<path d="M0 0 C1.98 0 3.96 0 6 0 C6.33 0.99 6.66 1.98 7 3 C9.64 3 12.28 3 15 3 C15 3.33 15 3.66 15 4 C9.158256 4.35050464 5.1468192 4.16727335 0 1 C0 0.67 0 0.34 0 0 Z " fill="#5F6DDC" transform="translate(341,266)"/>
<path d="M0 0 C0.556875 0.185625 1.11375 0.37125 1.6875 0.5625 C4.399133 1.07551165 6.34371039 0.6640724 9 0 C8.67 0.99 8.34 1.98 8 3 C5.69 3 3.38 3 1 3 C0.67 2.01 0.34 1.02 0 0 Z " fill="#5D6EFE" transform="translate(312,242)"/>
<path d="M0 0 C0.66 0.66 1.32 1.32 2 2 C-1.06117568 4.62386487 -1.73173127 5 -6 5 C-6 4.34 -6 3.68 -6 3 C-4.02 2.01 -2.04 1.02 0 0 Z " fill="#6773C4" transform="translate(143,252)"/>
<path d="M0 0 C0.66 0 1.32 0 2 0 C3.49524178 2.2727675 4.78399715 4.5679943 6 7 C3.5625 6.3125 3.5625 6.3125 1 5 C0.1875 2.375 0.1875 2.375 0 0 Z " fill="#4F5AE4" transform="translate(307,263)"/>
<path d="M0 0 C0.66 1.32 1.32 2.64 2 4 C1.01 4.495 1.01 4.495 0 5 C-0.65555119 7.52733235 -0.65555119 7.52733235 -1 10 C-1.33 10 -1.66 10 -2 10 C-2.1953125 3.9453125 -2.1953125 3.9453125 -2 2 C-1.34 1.34 -0.68 0.68 0 0 Z " fill="#5E71E7" transform="translate(308,255)"/>
</svg>
